#!OML:ASF F:\VICON\USERDATA\INSTALL\rory3\rory3.ASF
:FULLY-SPECIFIED
:DEGREES
220
root 1.2131184396632253 17.852556046966473 47.20047252742731 -3.795912627605594 -0.9722570772194258 -0.5527629176496247
lfemur 6.1823215376030145 -2.309347330641227 -20.901958704415485
ltibia 50.04635468962479
lfoot -16.52653704509908 -4.201490327046217
ltoes -15.425095878763603
rfemur -16.450603701990758 2.23283481522343 24.704942038646102
rtibia 21.8914479868389
rfoot 1.6471328218959567 -8.534172391066573
rtoes 11.521640585666926
lowerback 10.370580648366976 -1.1783335876733194 -1.5476406161256833
upperback -0.13405825998405416 -1.7972381284344066 2.003195659855267
thorax -6.04991036764859 -0.8494626217015269 3.5362787487873604
lowerneck -16.816115201673906 -3.3249710119499043 -1.501085425681726
upperneck 21.638022599192134 -4.502488989163903 1.0465590991444427
head 9.703860783544428 -2.120575224767497 0.023680689304130198
lclavicle -2.7003079518195994e-15 -2.151714706250879e-15
lhumerus -29.020409132164 2.455816168154289 81.92554953366756
lradius 24.788404044775707
lwrist 11.229707078953238
lhand -30.197571583448475 18.840335653704287
lfingers 7.125020000000001
lthumb -3.39975913168281 49.33984105370654
rclavicle -2.7003079517727253e-15 -2.151714706218353e-15
rhumerus -32.05059459913005 -20.84550920481859 -77.03296320813295
rradius 26.180579069998764
rwrist 6.0559925745733665
rhand -17.93400283364175 21.87294458849265
rfingers 7.125020000000001
rthumb 8.74182085580858 -7.396394074571408
221
root 1.2172019971328698 17.85487677254193 47.10833741021413 -3.714331570676908 -1.0161371961310668 -0.5588485177070424
lfemur 6.526282600266022 -2.4092170984729684 -21.017982746175825
ltibia 49.38955033151376
lfoot -16.784311282952842 -4.120037869105998
ltoes -15.34632653341105
rfemur -16.67237699638573 2.2432559538274854 24.720678362405923
rtibia 21.861980124261894
rfoot 1.4959819462442319 -8.556070224974809
rtoes 11.536625284430976
lowerback 10.362021318173534 -1.1999125908617099 -1.604872017706084
upperback -0.15167057616245133 -1.8253843934602172 1.9873413470543788
thorax -6.057008547442991 -0.8450881985946868 3.6036216298214923
lowerneck -16.771881998692994 -3.3304440086866727 -1.509463574553623
upperneck 21.67271262291085 -4.5078083697950495 1.0365662124960395
head 9.725157340052576 -2.1213952877040585 0.019194296860348597
lclavicle -2.70030795182162e-15 -2.1517147062521246e-15
lhumerus -28.80718343161191 2.33499232332787 81.8433398410813
lradius 24.725309619412293
lwrist 10.749553803046137
lhand -30.17932706090933 19.11290395087428
lfingers 7.125020000000001
lthumb -3.343386063427297 49.79042216620542
rclavicle -2.7003079517732977e-15 -2.1517147062186153e-15
rhumerus -31.59297582179692 -20.630814320864353 -77.0812280926562
rradius 26.19326980844334
rwrist 6.094346198978746
rhand -18.023712286802734 21.714029592784318
rfingers 7.125020000000001
rthumb 8.644677031521919 -7.702171160078306
222
root 1.2184552462133977 17.854953622986415 46.94037978428773 -3.72056673739337 -1.0566241975751285 -0.5139939597067849
lfemur 6.665248959572137 -2.479716102336991 -21.181855081988253
ltibia 49.0329171206068
lfoot -16.819196126835084 -3.899726549676327
ltoes -17.345676579490004
rfemur -16.820890229659444 2.2562941448399587 24.7234879542758
rtibia 22.02322440627441
rfoot 1.2237970579329236 -8.646421146599144
rtoes 11.613328006743949
lowerback 10.387896865894788 -1.2084195918003986 -1.6284892365189898
upperback -0.11711751084204342 -1.8828172684722213 1.946157794447564
thorax -6.0581378755133235 -0.8752646488876692 3.598300323437168
lowerneck -16.774385961915662 -3.341085175397588 -1.5310145030587585
upperneck 21.626524885553952 -4.514487085492341 1.0844321437051514
head 9.692064632342943 -2.1237060166537978 0.041981850534224235
lclavicle -2.70030795182215e-15 -2.1517147062523324e-15
lhumerus -28.597222292937875 2.158442247152969 81.78245668743733
lradius 24.799460198511465
lwrist 10.271448120059105
lhand -30.112923957887322 18.153396788433867
lfingers 7.125020000000001
lthumb -3.3653639432969698 48.43962025208304
rclavicle -2.7003079517736597e-15 -2.1517147062186753e-15
rhumerus -31.01465094190548 -20.33255541483788 -77.15967324117943
rradius 26.143422511460518
rwrist 6.156408210527919
rhand -18.030239413578595 21.739113358633897
rfingers 7.125020000000001
rthumb 8.702047641797147 -7.664180543438021
223
root 1.2280342922963852 17.88963927350498 47.04798184824786 -3.1573941568558426 -0.7371995171799766 -1.3526085056761648
lfemur 6.533796743947429 -2.6279422163163715 -20.571314957874648
ltibia 48.934621887063585
lfoot -17.139396270460615 -3.575183148050475
ltoes -16.181500749576898
rfemur -16.621179185255883 2.335595206021931 25.360779624401623
rtibia 20.823634716269055
rfoot 1.021355296593562 -8.651091138492694
rtoes 8.95834908377681
lowerback 10.29596130175012 -1.3188951040251224 -0.9222674601153033
upperback -0.1552064337764114 -1.865131497610341 2.0743676695548894
thorax -6.09771710393143 -0.8818890546696576 3.5836655832856805
lowerneck -16.805185212104366 -3.349536542785275 -1.535544406791371
upperneck 21.599806077025256 -4.527210637429029 1.0273029880886182
head 9.7023246148313 -2.1262344643708238 0.013797004533781493
lclavicle -2.7003079518309488e-15 -2.1517147062583988e-15
lhumerus -28.553765106867893 1.7870135430621228 81.6433428631753
lradius 24.99953844044183
lwrist 10.491156196795998
lhand -29.652954728266508 18.653489230599234
lfingers 7.125020000000001
lthumb -2.8507144388247423 49.27330312285753
rclavicle -2.70030795177543e-15 -2.1517147062200128e-15
rhumerus -30.536441623254415 -20.095070796063972 -77.1869545054686
rradius 26.12965717687505
rwrist 5.917047031500229
rhand -18.061435731295553 21.738975351651405
rfingers 7.125020000000001
rthumb 8.653268472609714 -7.718956156425069
224
root 1.2218451561662462 17.91668755158276 46.142870007630165 -2.8615893362037257 -0.6935835369400347 -1.9959043385097839
lfemur 6.277991300609701 -2.7116239583172117 -20.09405941233154
ltibia 49.130798090507724
lfoot -17.051994236582438 -2.972795243231214
ltoes -17.712023138979028
rfemur -16.1841091480096 2.5183068232142647 25.94037574963994
rtibia 19.72464352422822
rfoot 0.8000645084553373 -8.628281444385301
rtoes 8.34641569161721
lowerback 10.248992583711848 -1.342247089525196 -0.36143852627746254
upperback -0.17928771258824033 -1.8027160772094952 2.2025540558355905
thorax -6.133037033556907 -0.860928909666413 3.535570923925221
lowerneck -16.8008030330357 -3.3525047421886374 -1.5457644291702062
upperneck 21.574004031942682 -4.5328730510435715 0.9780989561878206
head 9.680975216211174 -2.1310479773508155 -0.0001582823847517678
lclavicle -2.700307951835811e-15 -2.1517147062617104e-15
lhumerus -28.29552741330273 1.6783918170823862 81.62532891124339
lradius 25.2478257882587
lwrist 11.024326164342334
lhand -29.506327162338927 18.84659244121899
lfingers 7.125020000000001
lthumb -2.6857278802259676 49.415007100763866
rclavicle -2.700307951781884e-15 -2.1517147062243866e-15
rhumerus -30.218399951043782 -19.950394647210334 -77.27181440162565
rradius 26.1355773493502
rwrist 5.8837500358563695
rhand -18.055645376422433 21.8160125092049
rfingers 7.125020000000001
rthumb 8.74231854811306 -7.3355335730424205
225
root 1.231396619657041 17.927259735858364 45.89139675804191 -2.8670963591660463 -0.7430455832112006 -2.212375297279214
lfemur 5.5068620807738995 -2.6788952544692037 -19.82346787668127
ltibia 49.693748415698835
lfoot -17.404385129611654 -2.752204620902072
ltoes -17.55807490177777
rfemur -15.81127643374849 2.625472859451623 26.161526426617087
rtibia 19.037464715623635
rfoot 0.7523530204670799 -8.34751082895355
rtoes 8.134960970816001
lowerback 10.238665300239909 -1.389528495233434 -0.22111786762008057
upperback -0.19912432548603917 -1.8262932757705357 2.2598784688954563
thorax -6.127268172279844 -0.8858061217233384 3.6068008404732694
lowerneck -16.800063997504516 -3.3598494351367423 -1.5628602130415092
upperneck 21.558561756121726 -4.528012823221862 0.9438176613097753
head 9.671602455511106 -2.130016670427495 -0.012121500744691843
lclavicle -2.7003079518465434e-15 -2.1517147062691797e-15
lhumerus -28.132133091130722 1.5019924363163608 81.57974482943995
lradius 25.495603752275066
lwrist 11.409948676100882
lhand -29.738827739331153 19.457486568497085
lfingers 7.125020000000001
lthumb -2.8911225504780425 50.0407001111003
rclavicle -2.7003079517804925e-15 -2.15171470622373e-15
rhumerus -30.23791285856532 -19.824225078392725 -77.01952696959688
rradius 26.11999119130462
rwrist 4.975448927537306
rhand -18.068547254631735 21.903866667244248
rfingers 7.125020000000001
rthumb 8.605608233661677 -7.262390036909552
226
root 1.2492176521328808 17.933436393527558 46.23345817382163 -2.9793870754488974 -0.6801574908733173 -2.1161729786847117
lfemur 5.2300869388425415 -2.62741167998284 -19.76905019568994
ltibia 50.2332951897165
lfoot -17.276776735265813 -2.500808688630411
ltoes -14.859716961192353
rfemur -15.363787054784217 2.606020959049975 26.168298158687165
rtibia 18.849776099848512
rfoot 0.6799603159832017 -7.941587571400478
rtoes 8.341128292916466
lowerback 10.207018757704306 -1.4050952743965144 -0.14675706532369748
upperback -0.18609062158786022 -1.8579637496727492 2.275856608554644
thorax -6.059684159514875 -0.8850466167127378 3.725269211082143
lowerneck -16.79708854425099 -3.364160446891297 -1.58135504358468
upperneck 21.550673441348753 -4.533906392814062 0.9441540627677187
head 9.655682603087207 -2.1318034178092673 -0.0010995306378925318
lclavicle -2.7003079518360945e-15 -2.1517147062621482e-15
lhumerus -27.98478759084144 1.4498206599345038 81.61990100727039
lradius 25.79733395161337
lwrist 11.399782776979553
lhand -29.453852161450026 18.737436954996806
lfingers 7.125020000000001
lthumb -2.6910745776756353 49.16190363274514
rclavicle -2.700307951770295e-15 -2.1517147062167556e-15
rhumerus -30.735372176479753 -19.90980300648118 -76.5500648252161
rradius 26.175982341362666
rwrist 4.247260787956175
rhand -18.067420640958122 21.97959675311147
rfingers 7.125020000000001
rthumb 8.549929247944522 -7.141878644632386
